<svg version="1.1" id="Layer_1" xmlns="http://www.w3.org/2000/svg" xmlns:xlink="http://www.w3.org/1999/xlink" x="0px" y="0px"
	 width="100%" viewBox="0 0 1536 1024" xml:space="preserve"> 
M766.532288,492.910004 
	C767.034302,492.608063 767.536316,492.306122 767.992981,491.984314 
	C767.992981,491.984314 768.009888,492.030945 768.587402,491.755341 
	C769.756592,490.820190 770.925781,489.885040 772.652710,488.602264 
	C779.238831,482.423187 781.333801,474.540558 780.817688,465.893097 
	C780.126648,454.315094 773.822571,446.946930 762.082275,443.893585 
	C771.464844,437.533661 773.882568,434.893524 775.731567,429.348633 
	C780.925293,413.773651 772.000305,399.436401 754.599365,395.920532 
	C754.072754,395.956635 753.546204,395.992706 752.370544,395.752655 
	C751.238647,395.514374 750.106812,395.276093 748.169556,394.908081 
	C733.856384,394.707001 719.542480,394.543427 705.230469,394.279236 
	C701.513916,394.210632 700.932068,396.265289 700.937500,399.371948 
	C700.992371,430.684601 701.024292,461.997589 700.895020,493.309814 
	C700.878113,497.414612 702.235474,498.905609 706.347900,498.841461 
	C718.337036,498.654419 730.366028,499.302704 742.309570,498.536072 
	C749.627258,498.066315 756.816589,495.598602 764.007751,493.992157 
	C764.007751,493.992157 763.979065,494.052185 764.558044,493.910492 
	C765.064148,493.607605 765.570251,493.304718 765.989319,492.974060 
	C765.989319,492.974060 765.961426,493.061096 766.532288,492.910004 
M852.380554,523.765930 
	C852.220581,525.744385 851.929016,527.722473 851.922180,529.701416 
	C851.879639,542.026917 851.900269,554.352600 851.900940,566.678223 
	C851.901978,585.666321 851.869324,604.654663 851.965881,623.642273 
	C851.974243,625.296509 852.796997,628.367859 853.306885,628.381714 
	C859.432739,628.548584 865.779846,630.805908 871.699097,626.437134 
	C871.853638,624.692627 872.008179,622.948120 872.216064,620.601990 
	C873.568787,621.454773 874.360229,621.765198 874.898865,622.320740 
	C888.356628,636.202759 916.295105,631.717896 924.859009,609.216003 
	C929.162964,597.907166 929.385498,586.394287 925.596802,574.973755 
	C920.373840,559.229675 904.571411,549.649902 888.752319,553.054504 
	C883.121460,554.266418 877.911499,557.433838 872.042603,559.905151 
	C872.042603,558.359436 872.043945,556.586548 872.042297,554.813721 
	C872.034241,546.160767 871.867004,537.503906 872.084778,528.856628 
	C872.191162,524.631226 870.880066,522.684082 866.413635,522.978027 
	C861.938538,523.272583 857.434143,523.122620 852.380554,523.765930 
M652.880615,444.342468 
	C651.621765,434.238708 646.607605,426.561707 637.855103,421.397583 
	C602.987183,400.824860 568.146790,380.204651 533.191223,359.781708 
	C522.052063,353.273621 510.538971,353.525269 499.427155,360.011871 
	C465.038971,380.086182 430.783813,400.388824 396.359344,420.400452 
	C384.942505,427.037354 379.929199,436.808319 379.945374,449.701599 
	C379.991333,486.363007 380.048126,523.024780 379.913177,559.685791 
	C379.858459,574.552185 386.009277,585.494385 398.860321,593.017639 
	C431.642944,612.209106 464.449371,631.365967 496.982330,650.974731 
	C510.358673,659.037048 522.937073,658.702515 535.978027,650.748901 
	C547.213196,643.896667 558.652283,637.378296 570.014709,630.735474 
	C591.733093,618.037964 613.509644,605.439087 635.164185,592.633789 
	C645.664307,586.424683 652.395752,577.587830 652.907837,563.951172 
	C652.886963,524.352051 652.866150,484.752960 652.880615,444.342468 
M975.344116,500.703857 
	C997.670715,498.248749 1010.457153,487.055695 1013.619080,467.198547 
	C1016.534912,448.886200 1006.695801,430.823669 990.378235,424.533081 
	C972.234802,417.538544 951.656372,423.373108 942.030029,438.697357 
	C927.543213,461.759033 937.431030,499.105957 975.344116,500.703857 
M1082.605347,459.058197 
	C1073.807983,467.251251 1071.683105,482.075531 1079.065918,491.189331 
	C1082.179321,495.032806 1087.275635,498.238434 1092.068604,499.551056 
	C1102.027466,502.278473 1111.483154,499.930084 1120.441040,491.113983 
	C1118.568481,498.604767 1122.371338,498.466675 1126.141968,498.407471 
	C1128.973633,498.363007 1131.807373,498.312622 1134.638184,498.366150 
	C1137.666626,498.423401 1139.156372,497.327179 1139.125610,493.993286 
	C1138.984131,478.666901 1139.281860,463.332275 1138.899292,448.013641 
	C1138.602905,436.147339 1132.639404,427.706268 1121.219482,423.967285 
	C1108.392090,419.767426 1095.890015,421.279755 1084.012573,427.626556 
	C1082.788208,428.280853 1081.103638,429.560333 1081.035645,430.638306 
	C1080.718750,435.659332 1080.895264,440.711487 1080.895264,445.396545 
	C1088.087646,442.927948 1094.525146,440.216095 1101.223633,438.561005 
	C1107.884277,436.915314 1115.189819,439.835297 1117.391357,444.689484 
	C1118.543457,447.229767 1118.303345,450.401459 1118.692017,453.287994 
	C1116.471924,453.470123 1114.248413,453.833160 1112.032471,453.791931 
	C1108.707275,453.730072 1105.384155,453.160767 1102.065552,453.206818 
	C1095.315063,453.300507 1088.788330,454.422485 1082.605347,459.058197 
M809.997131,584.290710 
	C805.010864,584.191772 799.994690,583.696289 795.044006,584.069580 
	C781.159912,585.116394 772.283508,595.243835 773.038025,608.714661 
	C773.782471,622.006470 782.934326,630.098145 796.956421,630.163452 
	C804.261230,630.197510 810.541504,627.702576 816.570740,622.489624 
	C817.170227,629.101929 821.331970,629.009521 825.632324,628.783569 
	C827.790771,628.670105 829.960388,628.678833 832.122070,628.739197 
	C835.494812,628.833374 836.874695,627.273315 836.854248,623.896057 
	C836.765747,609.249634 837.063232,594.596008 836.702515,579.957825 
	C836.446167,569.552307 832.748474,560.517090 822.542847,555.982422 
	C808.858765,549.902222 795.295654,551.151245 782.190735,558.033569 
	C780.877686,558.723083 779.257874,560.301331 779.161316,561.572083 
	C778.801575,566.308472 779.017761,571.088623 779.017761,576.782959 
	C781.728821,575.423645 783.624573,574.532776 785.464966,573.539551 
	C791.595703,570.230957 798.009399,568.170166 805.084351,569.060059 
	C811.299316,569.841797 814.899170,573.000061 816.270935,578.774109 
	C817.565430,584.222961 816.746521,585.080505 809.997131,584.290710 
M885.590515,424.231750 
	C878.395935,424.231750 871.201355,424.231750 862.942688,424.231750 
	C864.533386,426.878143 865.387817,428.441010 866.373535,429.916168 
	C872.108521,438.498688 877.727173,447.165161 883.703735,455.576904 
	C886.026428,458.846100 885.920837,461.249420 883.631653,464.457520 
	C876.960022,473.807037 870.587524,483.370331 864.129822,492.871613 
	C863.176514,494.274353 862.397034,495.795349 860.880432,498.381470 
	C867.942200,498.381470 873.727173,498.206024 879.494568,498.447845 
	C882.904419,498.590820 885.067566,497.405334 886.848938,494.521606 
	C890.575256,488.489380 894.578491,482.628204 898.971924,475.928192 
	C903.196960,482.499603 906.888489,488.362579 910.727051,494.127686 
	C911.704895,495.596252 913.098328,497.817596 914.387817,497.879456 
	C921.865967,498.238159 929.370117,498.054810 938.015564,498.054810 
	C929.599609,485.828339 922.046265,474.689056 914.285278,463.696381 
	C912.339355,460.940155 912.346619,458.893494 914.326660,456.153412 
	C920.664368,447.383301 926.769531,438.444489 932.913086,429.535370 
	C933.882812,428.129150 934.586121,426.539154 935.987183,423.987579 
	C929.367249,423.987579 923.908752,424.186829 918.472961,423.920898 
	C914.529602,423.727936 911.914917,424.968658 909.992737,428.534271 
	C907.025269,434.039124 903.661316,439.330231 900.312134,444.970306 
	C895.470520,437.863159 890.917603,431.179688 885.590515,424.231750 
M943.893738,627.695435 
	C953.683777,630.478210 963.571350,631.146118 973.479614,628.552734 
	C985.239441,625.474548 991.701050,617.489685 991.952332,606.136963 
	C992.181274,595.794128 986.165955,588.444702 974.323364,584.922119 
	C969.546753,583.501343 964.618591,582.592712 959.831909,581.201782 
	C956.468323,580.224182 953.484253,578.422546 954.040527,574.247437 
	C954.560852,570.342041 957.885498,569.018494 961.046814,569.184387 
	C967.120422,569.503052 973.182678,570.421936 979.189209,571.445923 
	C981.519775,571.843201 983.686768,573.199951 986.933411,574.532043 
	C986.933411,569.519226 986.792053,565.416870 986.978638,561.329590 
	C987.124512,558.133728 985.744568,556.403564 982.807251,555.459106 
	C972.440186,552.125061 961.960815,551.062073 951.361572,554.088928 
	C940.260132,557.259094 933.972961,565.567505 934.215149,576.366577 
	C934.447815,586.741760 940.664673,594.162109 951.825256,597.152466 
	C956.160645,598.314148 960.610657,599.048218 964.944946,600.213501 
	C968.532959,601.178162 971.557617,603.036438 971.219971,607.399048 
	C970.868408,611.941833 967.552185,613.444641 963.629822,613.886597 
	C955.836609,614.764709 948.356995,613.717224 941.379272,609.908875 
	C939.853455,609.076050 938.269287,608.350098 935.610168,607.026428 
	C935.610168,611.016052 935.610107,613.963562 935.610107,616.911011 
	C935.610107,624.812439 935.610168,624.812439 943.893738,627.695435 
M1024.950562,487.459595 
	C1025.209351,499.302063 1022.903381,498.246643 1035.885498,498.407776 
	C1037.384888,498.426392 1038.891846,498.301575 1040.383179,498.408905 
	C1044.480957,498.703766 1045.956665,496.866638 1045.899048,492.787537 
	C1045.731934,480.958954 1045.775024,469.125519 1045.888306,457.295441 
	C1045.980713,447.649475 1051.493896,442.179291 1061.113037,441.956970 
	C1064.211304,441.885345 1067.312378,441.945679 1070.998657,441.945679 
	C1070.998657,436.283203 1071.240479,430.811798 1070.813599,425.393005 
	C1070.717285,424.172455 1068.378784,422.317871 1066.917358,422.156342 
	C1060.670898,421.465820 1055.094971,423.420105 1050.381958,427.670380 
	C1048.883911,429.021393 1047.347412,430.329712 1045.517700,431.929230 
	C1043.720093,424.010681 1043.720093,424.010132 1036.332886,423.993378 
	C1034.499878,423.989227 1032.649414,424.152435 1030.837402,423.956177 
	C1026.222168,423.456360 1024.825928,425.486603 1024.870850,429.984589 
	C1025.058960,448.812439 1024.949585,467.643311 1024.950562,487.459595 
M832.095032,493.178467 
	C831.669739,497.123962 833.601196,498.583527 837.370422,498.433929 
	C841.193176,498.282196 845.025208,498.373016 848.853088,498.339447 
	C851.379944,498.317261 852.924866,497.350464 852.921204,494.501251 
	C852.892578,472.364960 852.895813,450.228546 852.936035,428.092255 
	C852.941467,425.107513 851.562622,423.895844 848.667908,423.967773 
	C845.507690,424.046295 842.343628,423.958954 839.181580,423.982483 
	C832.126709,424.034943 832.093018,424.044708 832.087280,431.337402 
	C832.071228,451.643250 832.085754,471.949097 832.095032,493.178467 
M815.590881,468.482910 
	C815.496399,445.013794 815.340332,421.544586 815.369934,398.075653 
	C815.374695,394.286469 814.340088,392.518646 810.282349,392.912415 
	C807.312927,393.200531 804.292969,392.957062 801.295593,392.969879 
	C794.182190,393.000336 794.140564,393.004944 794.136169,400.186401 
	C794.119141,427.995758 793.961731,455.806519 794.193542,483.613953 
	C794.340332,501.218079 790.772095,498.303375 810.127869,498.630585 
	C814.305359,498.701172 815.620239,496.822296 815.561768,492.940033 
	C815.443970,485.120392 815.559509,477.297180 815.590881,468.482910 
M700.946594,603.500000 
	C700.946838,609.995850 701.198608,616.504822 700.861023,622.983032 
	C700.627136,627.473022 702.409363,628.750916 706.621277,628.710876 
	C721.943237,628.565125 737.268616,628.782410 752.590515,628.634277 
	C767.704102,628.488159 765.455444,630.802551 765.843689,615.338806 
	C765.968567,610.365479 763.916565,609.069702 759.329590,609.183167 
	C749.508606,609.426025 739.677429,609.284668 729.850525,609.251648 
	C723.108093,609.228943 722.719421,608.876831 722.706177,602.247864 
	C722.664185,581.261536 722.677612,560.275085 722.667969,539.288696 
	C722.660828,523.765503 722.658691,523.934692 707.142151,523.847168 
	C702.401123,523.820374 700.808594,525.188721 700.851196,530.047791 
	C701.062683,554.196899 700.946838,578.348999 700.946594,603.500000 
M833.046692,396.731720 
	C830.125366,401.100708 829.981750,405.497345 833.363281,409.612732 
	C836.298645,413.185059 843.066650,414.341187 848.231750,412.460205 
	C852.180481,411.022156 854.628540,408.339752 854.953979,404.042694 
	C855.293091,399.565857 853.340820,396.146942 849.348755,394.342377 
	C843.838623,391.851532 838.381287,391.847748 833.046692,396.731720 
z"/>
<path fill="#002058" opacity="1.000000" stroke="none" 
	d="
M652.848267,564.867432 
	C652.395752,577.587830 645.664307,586.424683 635.164185,592.633789 
	C613.509644,605.439087 591.733093,618.037964 570.014709,630.735474 
	C558.652283,637.378296 547.213196,643.896667 535.978027,650.748901 
	C522.937073,658.702515 510.358673,659.037048 496.982330,650.974731 
	C464.449371,631.365967 431.642944,612.209106 398.860321,593.017639 
	C386.009277,585.494385 379.858459,574.552185 379.913177,559.685791 
	C380.048126,523.024780 379.991333,486.363007 379.945374,449.701599 
	C379.929199,436.808319 384.942505,427.037354 396.359344,420.400452 
	C430.783813,400.388824 465.038971,380.086182 499.427155,360.011871 
	C510.538971,353.525269 522.052063,353.273621 533.191223,359.781708 
	C568.146790,380.204651 602.987183,400.824860 637.855103,421.397583 
	C646.607605,426.561707 651.621765,434.238708 652.750244,445.130341 
	C652.419861,447.893738 652.047729,449.869080 652.045654,451.844818 
	C652.009155,487.222229 652.002014,522.599670 652.051880,557.977051 
	C652.055115,560.274231 652.570923,562.570679 652.848267,564.867432 
M399.045349,546.499451 
	C399.045898,550.664185 399.334900,554.853210 398.986847,558.988586 
	C398.266357,567.549316 402.126495,573.054749 409.346619,577.247864 
	C442.185089,596.318787 474.936646,615.540588 507.627502,634.863647 
	C513.731567,638.471680 519.207581,638.592712 525.381165,634.949646 
	C558.372620,615.481506 591.463989,596.182129 624.573792,576.915466 
	C631.077332,573.130981 634.169922,568.040649 634.116394,560.248047 
	C633.870544,524.432983 633.821289,488.613495 634.147644,452.799652 
	C634.224548,444.359863 630.909119,439.181641 623.854858,435.074951 
	C591.468201,416.220764 559.151855,397.241913 527.008972,377.976074 
	C519.902710,373.716675 513.774536,373.295074 506.580322,377.574860 
	C473.945007,396.989197 441.176697,416.181152 408.375519,435.314697 
	C401.796021,439.152618 398.884430,444.327637 398.942902,452.043640 
	C399.178955,483.194122 399.042664,514.347412 399.045349,546.499451 
z"/>
<path fill="#002057" opacity="1.000000" stroke="none" 
	d="
M748.974915,395.037842 
	C750.106812,395.276093 751.238647,395.514374 752.890381,395.930237 
	C753.935547,396.079407 754.460815,396.051025 754.986084,396.022644 
	C772.000305,399.436401 780.925293,413.773651 775.731567,429.348633 
	C773.882568,434.893524 771.464844,437.533661 762.082275,443.893585 
	C773.822571,446.946930 780.126648,454.315094 780.817688,465.893097 
	C781.333801,474.540558 779.238831,482.423187 772.044006,488.869934 
	C770.293518,490.102051 769.151672,491.066498 768.009888,492.030945 
	C768.009888,492.030945 767.992981,491.984314 767.754150,492.122772 
	C766.997437,492.527863 766.479431,492.794495 765.961426,493.061096 
	C765.961426,493.061096 765.989319,492.974060 765.768372,493.114746 
	C765.024658,493.520996 764.501831,493.786591 763.979065,494.052185 
	C763.979065,494.052185 764.007751,493.992157 763.621155,494.028259 
	C758.829895,494.916718 754.442444,496.384796 750.017456,496.508087 
	C735.712524,496.906647 721.393921,496.833405 707.080383,496.890778 
	C703.130676,496.906616 702.050171,494.369507 702.051514,490.927216 
	C702.063354,461.290619 702.078003,431.654022 702.036133,402.017487 
	C702.030212,397.799011 703.980408,395.982483 708.131409,396.020905 
	C715.789429,396.091888 723.451477,396.142181 731.106812,395.972717 
	C737.066833,395.840790 743.019165,395.362305 748.974915,395.037842 
M737.303833,453.068054 
	C733.812073,453.075806 730.252991,452.689819 726.859375,453.270813 
	C725.347839,453.529602 723.105652,455.671906 723.021606,457.069153 
	C722.623108,463.695038 722.686096,470.367065 723.009705,477.001892 
	C723.071594,478.269012 725.061768,480.503235 726.138123,480.488831 
	C733.583130,480.389008 741.111511,480.376190 748.434204,479.211029 
	C754.381592,478.264709 757.525696,473.823212 757.934692,468.483673 
	C758.381226,462.655243 755.591248,457.594849 749.882690,455.487549 
	C746.207214,454.130737 742.136292,453.845062 737.303833,453.068054 
M722.787720,418.683563 
	C722.800415,423.514648 722.565735,428.366638 722.970581,433.164642 
	C723.098877,434.685211 724.960571,437.322327 725.982788,437.300323 
	C732.756470,437.154205 739.695068,437.185303 746.231445,435.662659 
	C752.393311,434.227234 755.596313,427.826691 754.688232,422.021332 
	C753.858032,416.713898 749.356812,412.663452 743.067566,412.087799 
	C738.432800,411.663605 733.730225,411.974731 729.096924,411.540771 
	C724.255249,411.087280 722.230896,412.972046 722.787720,418.683563 
z"/>
<path fill="#002057" opacity="1.000000" stroke="none" 
	d="
M852.942627,523.167542 
	C857.434143,523.122620 861.938538,523.272583 866.413635,522.978027 
	C870.880066,522.684082 872.191162,524.631226 872.084778,528.856628 
	C871.867004,537.503906 872.034241,546.160767 872.042297,554.813721 
	C872.043945,556.586548 872.042603,558.359436 872.042603,559.905151 
	C877.911499,557.433838 883.121460,554.266418 888.752319,553.054504 
	C904.571411,549.649902 920.373840,559.229675 925.596802,574.973755 
	C929.385498,586.394287 929.162964,597.907166 924.859009,609.216003 
	C916.295105,631.717896 888.356628,636.202759 874.898865,622.320740 
	C874.360229,621.765198 873.568787,621.454773 872.216064,620.601990 
	C872.008179,622.948120 871.853638,624.692627 871.219299,626.746460 
	C867.739868,627.041016 864.740234,627.027588 861.740601,627.011108 
	C853.523376,626.965820 853.009094,626.476379 853.000916,618.159424 
	C852.969604,586.495483 852.960266,554.831482 852.942627,523.167542 
M899.130310,573.232971 
	C885.355774,565.600342 872.101562,573.408752 872.040710,589.193298 
	C872.032410,591.356201 872.003418,593.519531 872.035767,595.681946 
	C872.157349,603.821655 876.178650,609.648621 883.047241,611.678101 
	C891.051270,614.043213 898.953674,611.370544 903.305603,604.826599 
	C909.411987,595.644531 907.778015,581.367065 899.130310,573.232971 
z"/>
<path fill="#002058" opacity="1.000000" stroke="none" 
	d="
M974.900269,500.726562 
	C937.431030,499.105957 927.543213,461.759033 942.030029,438.697357 
	C951.656372,423.373108 972.234802,417.538544 990.378235,424.533081 
	C1006.695801,430.823669 1016.534912,448.886200 1013.619080,467.198547 
	C1010.457153,487.055695 997.670715,498.248749 974.900269,500.726562 
M976.254089,481.909515 
	C985.412720,480.464020 990.947510,474.985565 992.630920,465.699371 
	C994.337769,456.284607 990.683838,446.323486 983.701355,442.484406 
	C981.311951,441.170624 978.411133,440.319580 975.690552,440.158051 
	C965.227722,439.536835 957.517273,447.534210 957.012085,459.134155 
	C956.402466,473.133545 963.056152,481.375488 976.254089,481.909515 
z"/>
<path fill="#002058" opacity="1.000000" stroke="none" 
	d="
M1082.892334,458.837402 
	C1088.788330,454.422485 1095.315063,453.300507 1102.065552,453.206818 
	C1105.384155,453.160767 1108.707275,453.730072 1112.032471,453.791931 
	C1114.248413,453.833160 1116.471924,453.470123 1118.692139,453.287964 
	C1118.303345,450.401459 1118.543457,447.229767 1117.391357,444.689484 
	C1115.189819,439.835297 1107.884277,436.915314 1101.223633,438.561005 
	C1094.525146,440.216095 1088.087646,442.927948 1080.895264,445.396545 
	C1080.895264,440.711487 1080.718750,435.659332 1081.035645,430.638306 
	C1081.103638,429.560333 1082.788208,428.280853 1084.012573,427.626556 
	C1095.890015,421.279755 1108.392090,419.767426 1121.219482,423.967285 
	C1132.639404,427.706268 1138.602905,436.147339 1138.899292,448.013641 
	C1139.281860,463.332275 1138.984131,478.666901 1139.125610,493.993286 
	C1139.156372,497.327179 1137.666626,498.423401 1134.638184,498.366150 
	C1131.807373,498.312622 1128.973633,498.363007 1126.141968,498.407471 
	C1122.371338,498.466675 1118.568481,498.604767 1120.441040,491.113983 
	C1111.483154,499.930084 1102.027466,502.278473 1092.068604,499.551056 
	C1087.275635,498.238434 1082.179321,495.032806 1079.065918,491.189331 
	C1071.683105,482.075531 1073.807983,467.251251 1082.892334,458.837402 
M1112.275024,483.038025 
	C1117.203735,480.483643 1119.280640,476.059235 1119.538086,470.871918 
	C1119.607788,469.468719 1117.810059,466.730194 1116.857178,466.724670 
	C1111.477417,466.693298 1105.935913,466.655518 1100.760864,467.906982 
	C1096.574219,468.919464 1094.697144,472.856445 1095.357544,477.359009 
	C1096.024780,481.909027 1098.897827,484.545013 1103.383545,484.708832 
	C1106.100708,484.808136 1108.856079,483.868805 1112.275024,483.038025 
z"/>
<path fill="#002058" opacity="1.000000" stroke="none" 
	d="
M810.434875,584.358765 
	C816.746521,585.080505 817.565430,584.222961 816.270935,578.774109 
	C814.899170,573.000061 811.299316,569.841797 805.084351,569.060059 
	C798.009399,568.170166 791.595703,570.230957 785.464966,573.539551 
	C783.624573,574.532776 781.728821,575.423645 779.017761,576.782959 
	C779.017761,571.088623 778.801575,566.308472 779.161316,561.572083 
	C779.257874,560.301331 780.877686,558.723083 782.190735,558.033569 
	C795.295654,551.151245 808.858765,549.902222 822.542847,555.982422 
	C832.748474,560.517090 836.446167,569.552307 836.702515,579.957825 
	C837.063232,594.596008 836.765747,609.249634 836.854248,623.896057 
	C836.874695,627.273315 835.494812,628.833374 832.122070,628.739197 
	C829.960388,628.678833 827.790771,628.670105 825.632324,628.783569 
	C821.331970,629.009521 817.170227,629.101929 816.570740,622.489624 
	C810.541504,627.702576 804.261230,630.197510 796.956421,630.163452 
	C782.934326,630.098145 773.782471,622.006470 773.038025,608.714661 
	C772.283508,595.243835 781.159912,585.116394 795.044006,584.069580 
	C799.994690,583.696289 805.010864,584.191772 810.434875,584.358765 
M814.028137,596.913269 
	C809.570129,597.003967 805.048584,596.660095 800.671021,597.300659 
	C795.734558,598.023010 793.549683,601.519287 793.808899,606.686951 
	C794.048340,611.461426 796.624390,614.790894 801.599121,614.520325 
	C805.635559,614.300903 810.114746,612.898254 813.407593,610.601135 
	C817.912354,607.458557 818.157959,599.788940 814.028137,596.913269 
z"/>
<path fill="#002058" opacity="1.000000" stroke="none" 
	d="
M885.977539,424.363983 
	C890.917603,431.179688 895.470520,437.863159 900.312134,444.970306 
	C903.661316,439.330231 907.025269,434.039124 909.992737,428.534271 
	C911.914917,424.968658 914.529602,423.727936 918.472961,423.920898 
	C923.908752,424.186829 929.367249,423.987579 935.987183,423.987579 
	C934.586121,426.539154 933.882812,428.129150 932.913086,429.535370 
	C926.769531,438.444489 920.664368,447.383301 914.326660,456.153412 
	C912.346619,458.893494 912.339355,460.940155 914.285278,463.696381 
	C922.046265,474.689056 929.599609,485.828339 938.015564,498.054810 
	C929.370117,498.054810 921.865967,498.238159 914.387817,497.879456 
	C913.098328,497.817596 911.704895,495.596252 910.727051,494.127686 
	C906.888489,488.362579 903.196960,482.499603 898.971924,475.928192 
	C894.578491,482.628204 890.575256,488.489380 886.848938,494.521606 
	C885.067566,497.405334 882.904419,498.590820 879.494568,498.447845 
	C873.727173,498.206024 867.942200,498.381470 860.880432,498.381470 
	C862.397034,495.795349 863.176514,494.274353 864.129822,492.871613 
	C870.587524,483.370331 876.960022,473.807037 883.631653,464.457520 
	C885.920837,461.249420 886.026428,458.846100 883.703735,455.576904 
	C877.727173,447.165161 872.108521,438.498688 866.373535,429.916168 
	C865.387817,428.441010 864.533386,426.878143 862.942688,424.231750 
	C871.201355,424.231750 878.395935,424.231750 885.977539,424.363983 
z"/>
<path fill="#002058" opacity="1.000000" stroke="none" 
	d="
M943.518738,627.562256 
	C935.610168,624.812439 935.610107,624.812439 935.610107,616.911011 
	C935.610107,613.963562 935.610168,611.016052 935.610168,607.026428 
	C938.269287,608.350098 939.853455,609.076050 941.379272,609.908875 
	C948.356995,613.717224 955.836609,614.764709 963.629822,613.886597 
	C967.552185,613.444641 970.868408,611.941833 971.219971,607.399048 
	C971.557617,603.036438 968.532959,601.178162 964.944946,600.213501 
	C960.610657,599.048218 956.160645,598.314148 951.825256,597.152466 
	C940.664673,594.162109 934.447815,586.741760 934.215149,576.366577 
	C933.972961,565.567505 940.260132,557.259094 951.361572,554.088928 
	C961.960815,551.062073 972.440186,552.125061 982.807251,555.459106 
	C985.744568,556.403564 987.124512,558.133728 986.978638,561.329590 
	C986.792053,565.416870 986.933411,569.519226 986.933411,574.532043 
	C983.686768,573.199951 981.519775,571.843201 979.189209,571.445923 
	C973.182678,570.421936 967.120422,569.503052 961.046814,569.184387 
	C957.885498,569.018494 954.560852,570.342041 954.040527,574.247437 
	C953.484253,578.422546 956.468323,580.224182 959.831909,581.201782 
	C964.618591,582.592712 969.546753,583.501343 974.323364,584.922119 
	C986.165955,588.444702 992.181274,595.794128 991.952332,606.136963 
	C991.701050,617.489685 985.239441,625.474548 973.479614,628.552734 
	C963.571350,631.146118 953.683777,630.478210 943.518738,627.562256 
z"/>
<path fill="#002058" opacity="1.000000" stroke="none" 
	d="
M1024.949951,486.966309 
	C1024.949585,467.643311 1025.058960,448.812439 1024.870850,429.984589 
	C1024.825928,425.486603 1026.222168,423.456360 1030.837402,423.956177 
	C1032.649414,424.152435 1034.499878,423.989227 1036.332886,423.993378 
	C1043.720093,424.010132 1043.720093,424.010681 1045.517700,431.929230 
	C1047.347412,430.329712 1048.883911,429.021393 1050.381958,427.670380 
	C1055.094971,423.420105 1060.670898,421.465820 1066.917358,422.156342 
	C1068.378784,422.317871 1070.717285,424.172455 1070.813599,425.393005 
	C1071.240479,430.811798 1070.998657,436.283203 1070.998657,441.945679 
	C1067.312378,441.945679 1064.211304,441.885345 1061.113037,441.956970 
	C1051.493896,442.179291 1045.980713,447.649475 1045.888306,457.295441 
	C1045.775024,469.125519 1045.731934,480.958954 1045.899048,492.787537 
	C1045.956665,496.866638 1044.480957,498.703766 1040.383179,498.408905 
	C1038.891846,498.301575 1037.384888,498.426392 1035.885498,498.407776 
	C1022.903381,498.246643 1025.209351,499.302063 1024.949951,486.966309 
z"/>
<path fill="#002057" opacity="1.000000" stroke="none" 
	d="
M832.091675,492.716705 
	C832.085754,471.949097 832.071228,451.643250 832.087280,431.337402 
	C832.093018,424.044708 832.126709,424.034943 839.181580,423.982483 
	C842.343628,423.958954 845.507690,424.046295 848.667908,423.967773 
	C851.562622,423.895844 852.941467,425.107513 852.936035,428.092255 
	C852.895813,450.228546 852.892578,472.364960 852.921204,494.501251 
	C852.924866,497.350464 851.379944,498.317261 848.853088,498.339447 
	C845.025208,498.373016 841.193176,498.282196 837.370422,498.433929 
	C833.601196,498.583527 831.669739,497.123962 832.091675,492.716705 
z"/>
<path fill="#002360" opacity="1.000000" stroke="none" 
	d="
M815.584839,468.979187 
	C815.559509,477.297180 815.443970,485.120392 815.561768,492.940033 
	C815.620239,496.822296 814.305359,498.701172 810.127869,498.630585 
	C790.772095,498.303375 794.340332,501.218079 794.193542,483.613953 
	C793.961731,455.806519 794.119141,427.995758 794.136169,400.186401 
	C794.140564,393.004944 794.182190,393.000336 801.295593,392.969879 
	C804.292969,392.957062 807.312927,393.200531 810.282349,392.912415 
	C814.340088,392.518646 815.374695,394.286469 815.369934,398.075653 
	C815.340332,421.544586 815.496399,445.013794 815.584839,468.979187 
M812.025024,442.453735 
	C812.514404,436.821350 813.347351,431.192688 813.408142,425.555695 
	C813.488281,418.119324 812.705566,410.674408 812.763977,403.236847 
	C812.832825,394.470581 812.523438,393.938873 803.587891,394.027191 
	C802.921448,394.033783 802.253784,394.078613 801.588867,394.051544 
	C798.166443,393.912323 796.838440,395.584198 796.937012,398.944153 
	C797.282898,410.737885 797.627319,422.533875 797.752014,434.331329 
	C797.871460,445.627808 797.665527,456.927399 797.700073,468.225311 
	C797.723328,475.823914 797.777893,483.428741 798.149414,491.014557 
	C798.223999,492.535767 799.436218,494.689056 800.734131,495.346588 
	C807.264709,498.655182 814.148193,493.983734 813.838806,486.738068 
	C813.221863,472.289551 812.631653,457.839935 812.025024,442.453735 
z"/>
<path fill="#002360" opacity="1.000000" stroke="none" 
	d="
M700.946411,603.000000 
	C700.946838,578.348999 701.062683,554.196899 700.851196,530.047791 
	C700.808594,525.188721 702.401123,523.820374 707.142151,523.847168 
	C722.658691,523.934692 722.660828,523.765503 722.667969,539.288696 
	C722.677612,560.275085 722.664185,581.261536 722.706177,602.247864 
	C722.719421,608.876831 723.108093,609.228943 729.850525,609.251648 
	C739.677429,609.284668 749.508606,609.426025 759.329590,609.183167 
	C763.916565,609.069702 765.968567,610.365479 765.843689,615.338806 
	C765.455444,630.802551 767.704102,628.488159 752.590515,628.634277 
	C737.268616,628.782410 721.943237,628.565125 706.621277,628.710876 
	C702.409363,628.750916 700.627136,627.473022 700.861023,622.983032 
	C701.198608,616.504822 700.946838,609.995850 700.946411,603.000000 
M702.030762,590.500000 
	C702.035889,600.328857 701.982849,610.158264 702.067810,619.986450 
	C702.119385,625.955261 703.085022,626.918518 709.151428,626.941833 
	C725.143921,627.003357 741.137024,627.010620 757.129395,626.933289 
	C763.087402,626.904419 763.943176,625.800537 763.972595,619.212952 
	C764.004028,612.176331 763.195740,611.121460 757.058594,611.057495 
	C747.897034,610.961914 738.733643,611.053162 729.571411,611.002319 
	C721.943054,610.960022 721.010254,610.031860 720.998413,602.274109 
	C720.964722,580.117554 720.989380,557.960876 720.981689,535.804260 
	C720.977966,525.028809 720.864441,524.925293 710.144958,525.035950 
	C702.831543,525.111450 702.065735,525.803284 702.050659,533.025574 
	C702.011414,551.850342 702.033325,570.675171 702.030762,590.500000 
z"/>
<path fill="#002058" opacity="1.000000" stroke="none" 
	d="
M833.291992,396.443512 
	C838.381287,391.847748 843.838623,391.851532 849.348755,394.342377 
	C853.340820,396.146942 855.293091,399.565857 854.953979,404.042694 
	C854.628540,408.339752 852.180481,411.022156 848.231750,412.460205 
	C843.066650,414.341187 836.298645,413.185059 833.363281,409.612732 
	C829.981750,405.497345 830.125366,401.100708 833.291992,396.443512 
z"/>
<path fill="#002360" opacity="1.000000" stroke="none" 
	d="
M748.572266,394.972961 
	C743.019165,395.362305 737.066833,395.840790 731.106812,395.972717 
	C723.451477,396.142181 715.789429,396.091888 708.131409,396.020905 
	C703.980408,395.982483 702.030212,397.799011 702.036133,402.017487 
	C702.078003,431.654022 702.063354,461.290619 702.051514,490.927216 
	C702.050171,494.369507 703.130676,496.906616 707.080383,496.890778 
	C721.393921,496.833405 735.712524,496.906647 750.017456,496.508087 
	C754.442444,496.384796 758.829895,494.916718 763.649048,494.046265 
	C756.816589,495.598602 749.627258,498.066315 742.309570,498.536072 
	C730.366028,499.302704 718.337036,498.654419 706.347900,498.841461 
	C702.235474,498.905609 700.878113,497.414612 700.895020,493.309814 
	C701.024292,461.997589 700.992371,430.684601 700.937500,399.371948 
	C700.932068,396.265289 701.513916,394.210632 705.230469,394.279236 
	C719.542480,394.543427 733.856384,394.707001 748.572266,394.972961 
z"/>
<path fill="#002870" opacity="1.000000" stroke="none" 
	d="
M852.661621,523.466736 
	C852.960266,554.831482 852.969604,586.495483 853.000916,618.159424 
	C853.009094,626.476379 853.523376,626.965820 861.740601,627.011108 
	C864.740234,627.027588 867.739868,627.041016 871.181702,627.074829 
	C865.779846,630.805908 859.432739,628.548584 853.306885,628.381714 
	C852.796997,628.367859 851.974243,625.296509 851.965881,623.642273 
	C851.869324,604.654663 851.901978,585.666321 851.900940,566.678223 
	C851.900269,554.352600 851.879639,542.026917 851.922180,529.701416 
	C851.929016,527.722473 852.220581,525.744385 852.661621,523.466736 
z"/>
<path fill="#002870" opacity="1.000000" stroke="none" 
	d="
M652.878052,564.409302 
	C652.570923,562.570679 652.055115,560.274231 652.051880,557.977051 
	C652.002014,522.599670 652.009155,487.222229 652.045654,451.844818 
	C652.047729,449.869080 652.419861,447.893738 652.732544,445.536041 
	C652.866150,484.752960 652.886963,524.352051 652.878052,564.409302 
z"/>
<path fill="#002360" opacity="1.000000" stroke="none" 
	d="
M768.298645,491.893127 
	C769.151672,491.066498 770.293518,490.102051 771.765137,489.043762 
	C770.925781,489.885040 769.756592,490.820190 768.298645,491.893127 
z"/>
<path fill="#002360" opacity="1.000000" stroke="none" 
	d="
M754.792725,395.971588 
	C754.460815,396.051025 753.935547,396.079407 753.214966,396.068298 
	C753.546204,395.992706 754.072754,395.956635 754.792725,395.971588 
z"/>
<path fill="#002360" opacity="1.000000" stroke="none" 
	d="
M764.268555,493.981323 
	C764.501831,493.786591 765.024658,493.520996 765.811890,493.128601 
	C765.570251,493.304718 765.064148,493.607605 764.268555,493.981323 
z"/>
<path fill="#002360" opacity="1.000000" stroke="none" 
	d="
M766.246826,492.985565 
	C766.479431,492.794495 766.997437,492.527863 767.776855,492.132690 
	C767.536316,492.306122 767.034302,492.608063 766.246826,492.985565 
z"/>
<path fill="#000209" opacity="1.000000" stroke="none" 
	d="
M399.044617,545.999573 
	C399.042664,514.347412 399.178955,483.194122 398.942902,452.043640 
	C398.884430,444.327637 401.796021,439.152618 408.375519,435.314697 
	C441.176697,416.181152 473.945007,396.989197 506.580322,377.574860 
	C513.774536,373.295074 519.902710,373.716675 527.008972,377.976074 
	C559.151855,397.241913 591.468201,416.220764 623.854858,435.074951 
	C630.909119,439.181641 634.224548,444.359863 634.147644,452.799652 
	C633.821289,488.613495 633.870544,524.432983 634.116394,560.248047 
	C634.169922,568.040649 631.077332,573.130981 624.573792,576.915466 
	C591.463989,596.182129 558.372620,615.481506 525.381165,634.949646 
	C519.207581,638.592712 513.731567,638.471680 507.627502,634.863647 
	C474.936646,615.540588 442.185089,596.318787 409.346619,577.247864 
	C402.126495,573.054749 398.266357,567.549316 398.986847,558.988586 
	C399.334900,554.853210 399.045898,550.664185 399.044617,545.999573 
M505.847137,608.007446 
	C525.414978,608.539856 535.385376,598.228943 534.592163,578.555847 
	C534.535156,577.141663 535.798950,575.092407 537.053894,574.313171 
	C541.291016,571.682068 545.936951,569.708191 550.167847,567.068420 
	C554.213806,564.544006 557.496521,564.442017 561.992676,566.816956 
	C572.589966,572.414734 583.387390,571.767761 592.947876,564.209045 
	C602.071289,556.995972 604.818665,547.054993 602.373718,535.945251 
	C599.232056,521.670044 585.536743,512.924744 570.476440,515.046814 
	C556.769592,516.978210 546.139526,530.092590 547.190369,544.240173 
	C547.438416,547.580078 546.665527,549.475159 543.673035,550.961121 
	C538.154846,553.701294 532.868225,556.912842 527.318420,559.581421 
	C525.754883,560.333191 523.560608,560.201416 521.743164,559.916443 
	C516.399536,559.078674 511.067932,558.098938 505.798920,556.883179 
	C503.724243,556.404358 501.101776,555.690063 499.972687,554.163147 
	C494.329651,546.531677 488.987793,538.666870 483.837097,530.692261 
	C483.002319,529.399902 482.950226,526.713196 483.744263,525.403137 
	C488.545959,517.481384 489.429077,509.102478 487.063293,500.382111 
	C486.256927,497.409790 487.148102,495.732788 489.269470,493.985443 
	C495.313232,489.007141 501.466705,484.133453 507.182648,478.796265 
	C510.672943,475.537323 513.575012,474.902924 518.179993,476.844635 
	C530.296448,481.953674 544.445190,477.283325 551.705933,466.498840 
	C559.251587,455.291168 558.342346,440.316681 549.542480,430.868469 
	C540.767822,421.447296 526.669373,418.872131 515.112122,424.579559 
	C503.556427,430.286224 497.787201,442.212708 500.383820,456.041992 
	C501.043945,459.557831 500.160675,461.733459 497.616516,463.831268 
	C491.317230,469.025391 484.970093,474.174591 478.902374,479.631134 
	C475.646545,482.558990 472.820557,483.496063 468.251190,482.115753 
	C453.062775,477.527588 437.569183,485.997864 433.285645,500.578400 
	C427.598328,519.937195 441.452026,537.796936 461.593689,537.352234 
	C463.919220,537.300842 467.232422,538.114502 468.462585,539.749695 
	C474.466858,547.730713 480.041107,556.048340 485.452515,564.449768 
	C486.406067,565.930176 486.590210,568.680908 485.898346,570.327576 
	C478.312164,588.383728 485.998871,603.721008 505.847137,608.007446 
z"/>
<path fill="#000209" opacity="1.000000" stroke="none" 
	d="
M737.773193,453.073730 
	C742.136292,453.845062 746.207214,454.130737 749.882690,455.487549 
	C755.591248,457.594849 758.381226,462.655243 757.934692,468.483673 
	C757.525696,473.823212 754.381592,478.264709 748.434204,479.211029 
	C741.111511,480.376190 733.583130,480.389008 726.138123,480.488831 
	C725.061768,480.503235 723.071594,478.269012 723.009705,477.001892 
	C722.686096,470.367065 722.623108,463.695038 723.021606,457.069153 
	C723.105652,455.671906 725.347839,453.529602 726.859375,453.270813 
	C730.252991,452.689819 733.812073,453.075806 737.773193,453.073730 
z"/>
<path fill="#000209" opacity="1.000000" stroke="none" 
	d="
M722.792236,418.216309 
	C722.230896,412.972046 724.255249,411.087280 729.096924,411.540771 
	C733.730225,411.974731 738.432800,411.663605 743.067566,412.087799 
	C749.356812,412.663452 753.858032,416.713898 754.688232,422.021332 
	C755.596313,427.826691 752.393311,434.227234 746.231445,435.662659 
	C739.695068,437.185303 732.756470,437.154205 725.982788,437.300323 
	C724.960571,437.322327 723.098877,434.685211 722.970581,433.164642 
	C722.565735,428.366638 722.800415,423.514648 722.792236,418.216309 
z"/>
<path fill="#000209" opacity="1.000000" stroke="none" 
	d="
M899.434204,573.443970 
	C907.778015,581.367065 909.411987,595.644531 903.305603,604.826599 
	C898.953674,611.370544 891.051270,614.043213 883.047241,611.678101 
	C876.178650,609.648621 872.157349,603.821655 872.035767,595.681946 
	C872.003418,593.519531 872.032410,591.356201 872.040710,589.193298 
	C872.101562,573.408752 885.355774,565.600342 899.434204,573.443970 
z"/>
<path fill="#000209" opacity="1.000000" stroke="none" 
	d="
M975.833740,481.918762 
	C963.056152,481.375488 956.402466,473.133545 957.012085,459.134155 
	C957.517273,447.534210 965.227722,439.536835 975.690552,440.158051 
	C978.411133,440.319580 981.311951,441.170624 983.701355,442.484406 
	C990.683838,446.323486 994.337769,456.284607 992.630920,465.699371 
	C990.947510,474.985565 985.412720,480.464020 975.833740,481.918762 
z"/>
<path fill="#000209" opacity="1.000000" stroke="none" 
	d="
M1111.934570,483.217041 
	C1108.856079,483.868805 1106.100708,484.808136 1103.383545,484.708832 
	C1098.897827,484.545013 1096.024780,481.909027 1095.357544,477.359009 
	C1094.697144,472.856445 1096.574219,468.919464 1100.760864,467.906982 
	C1105.935913,466.655518 1111.477417,466.693298 1116.857178,466.724670 
	C1117.810059,466.730194 1119.607788,469.468719 1119.538086,470.871918 
	C1119.280640,476.059235 1117.203735,480.483643 1111.934570,483.217041 
z"/>
<path fill="#000209" opacity="1.000000" stroke="none" 
	d="
M814.413940,596.963501 
	C818.157959,599.788940 817.912354,607.458557 813.407593,610.601135 
	C810.114746,612.898254 805.635559,614.300903 801.599121,614.520325 
	C796.624390,614.790894 794.048340,611.461426 793.808899,606.686951 
	C793.549683,601.519287 795.734558,598.023010 800.671021,597.300659 
	C805.048584,596.660095 809.570129,597.003967 814.413940,596.963501 
z"/>
<path fill="#002057" opacity="1.000000" stroke="none" 
	d="
M812.027710,442.922241 
	C812.631653,457.839935 813.221863,472.289551 813.838806,486.738068 
	C814.148193,493.983734 807.264709,498.655182 800.734131,495.346588 
	C799.436218,494.689056 798.223999,492.535767 798.149414,491.014557 
	C797.777893,483.428741 797.723328,475.823914 797.700073,468.225311 
	C797.665527,456.927399 797.871460,445.627808 797.752014,434.331329 
	C797.627319,422.533875 797.282898,410.737885 796.937012,398.944153 
	C796.838440,395.584198 798.166443,393.912323 801.588867,394.051544 
	C802.253784,394.078613 802.921448,394.033783 803.587891,394.027191 
	C812.523438,393.938873 812.832825,394.470581 812.763977,403.236847 
	C812.705566,410.674408 813.488281,418.119324 813.408142,425.555695 
	C813.347351,431.192688 812.514404,436.821350 812.027710,442.922241 
z"/>
<path fill="#001F55" opacity="1.000000" stroke="none" 
	d="
M702.030823,590.000000 
	C702.033325,570.675171 702.011414,551.850342 702.050659,533.025574 
	C702.065735,525.803284 702.831543,525.111450 710.144958,525.035950 
	C720.864441,524.925293 720.977966,525.028809 720.981689,535.804260 
	C720.989380,557.960876 720.964722,580.117554 720.998413,602.274109 
	C721.010254,610.031860 721.943054,610.960022 729.571411,611.002319 
	C738.733643,611.053162 747.897034,610.961914 757.058594,611.057495 
	C763.195740,611.121460 764.004028,612.176331 763.972595,619.212952 
	C763.943176,625.800537 763.087402,626.904419 757.129395,626.933289 
	C741.137024,627.010620 725.143921,627.003357 709.151428,626.941833 
	C703.085022,626.918518 702.119385,625.955261 702.067810,619.986450 
	C701.982849,610.158264 702.035889,600.328857 702.030823,590.000000 
z"/>
<path fill="#002058" opacity="1.000000" stroke="none" 
	d="
M505.405060,607.971680 
	C485.998871,603.721008 478.312164,588.383728 485.898346,570.327576 
	C486.590210,568.680908 486.406067,565.930176 485.452515,564.449768 
	C480.041107,556.048340 474.466858,547.730713 468.462585,539.749695 
	C467.232422,538.114502 463.919220,537.300842 461.593689,537.352234 
	C441.452026,537.796936 427.598328,519.937195 433.285645,500.578400 
	C437.569183,485.997864 453.062775,477.527588 468.251190,482.115753 
	C472.820557,483.496063 475.646545,482.558990 478.902374,479.631134 
	C484.970093,474.174591 491.317230,469.025391 497.616516,463.831268 
	C500.160675,461.733459 501.043945,459.557831 500.383820,456.041992 
	C497.787201,442.212708 503.556427,430.286224 515.112122,424.579559 
	C526.669373,418.872131 540.767822,421.447296 549.542480,430.868469 
	C558.342346,440.316681 559.251587,455.291168 551.705933,466.498840 
	C544.445190,477.283325 530.296448,481.953674 518.179993,476.844635 
	C513.575012,474.902924 510.672943,475.537323 507.182648,478.796265 
	C501.466705,484.133453 495.313232,489.007141 489.269470,493.985443 
	C487.148102,495.732788 486.256927,497.409790 487.063293,500.382111 
	C489.429077,509.102478 488.545959,517.481384 483.744263,525.403137 
	C482.950226,526.713196 483.002319,529.399902 483.837097,530.692261 
	C488.987793,538.666870 494.329651,546.531677 499.972687,554.163147 
	C501.101776,555.690063 503.724243,556.404358 505.798920,556.883179 
	C511.067932,558.098938 516.399536,559.078674 521.743164,559.916443 
	C523.560608,560.201416 525.754883,560.333191 527.318420,559.581421 
	C532.868225,556.912842 538.154846,553.701294 543.673035,550.961121 
	C546.665527,549.475159 547.438416,547.580078 547.190369,544.240173 
	C546.139526,530.092590 556.769592,516.978210 570.476440,515.046814 
	C585.536743,512.924744 599.232056,521.670044 602.373718,535.945251 
	C604.818665,547.054993 602.071289,556.995972 592.947876,564.209045 
	C583.387390,571.767761 572.589966,572.414734 561.992676,566.816956 
	C557.496521,564.442017 554.213806,564.544006 550.167847,567.068420 
	C545.936951,569.708191 541.291016,571.682068 537.053894,574.313171 
	C535.798950,575.092407 534.535156,577.141663 534.592163,578.555847 
	C535.385376,598.228943 525.414978,608.539856 505.405060,607.971680 
M465.985535,499.181000 
	C459.860321,497.010468 455.448578,497.732300 452.290863,501.421570 
	C449.291870,504.925354 448.714020,510.483032 451.029633,514.481567 
	C453.566956,518.862915 457.521149,520.506958 462.407440,519.903503 
	C467.005890,519.335632 469.962097,516.629028 471.199280,512.222046 
	C472.667114,506.993469 470.940491,502.791962 465.985535,499.181000 
M537.565369,444.254242 
	C536.938110,443.480530 536.394226,442.616364 535.669800,441.947968 
	C531.507812,438.108215 525.177856,437.874634 521.081421,441.356506 
	C516.773132,445.018494 515.827881,451.419800 518.873596,456.307953 
	C521.686584,460.822662 527.395996,462.602112 532.459290,460.542267 
	C538.196716,458.208221 540.290833,452.242310 537.565369,444.254242 
M585.938721,543.368286 
	C585.436462,535.379822 580.522766,530.662415 573.722107,531.639954 
	C568.073425,532.451904 564.121887,536.998718 564.152222,542.651367 
	C564.181519,548.115173 568.342773,552.797119 573.899048,553.618042 
	C579.504700,554.446228 584.100403,550.830933 585.938721,543.368286 
M503.456848,574.785889 
	C499.727142,577.779114 498.651306,581.949036 500.523285,585.918213 
	C501.686005,588.383484 504.637085,590.720947 507.287811,591.598511 
	C511.129333,592.870422 514.927673,591.347412 517.098816,587.583130 
	C519.418396,583.561340 519.031677,579.436340 515.948975,576.040466 
	C512.628174,572.382263 508.443817,572.233459 503.456848,574.785889 
z"/>
<path fill="#000209" opacity="1.000000" stroke="none" 
	d="
M466.326294,499.370239 
	C470.940491,502.791962 472.667114,506.993469 471.199280,512.222046 
	C469.962097,516.629028 467.005890,519.335632 462.407440,519.903503 
	C457.521149,520.506958 453.566956,518.862915 451.029633,514.481567 
	C448.714020,510.483032 449.291870,504.925354 452.290863,501.421570 
	C455.448578,497.732300 459.860321,497.010468 466.326294,499.370239 
z"/>
<path fill="#000209" opacity="1.000000" stroke="none" 
	d="
M537.749329,444.600891 
	C540.290833,452.242310 538.196716,458.208221 532.459290,460.542267 
	C527.395996,462.602112 521.686584,460.822662 518.873596,456.307953 
	C515.827881,451.419800 516.773132,445.018494 521.081421,441.356506 
	C525.177856,437.874634 531.507812,438.108215 535.669800,441.947968 
	C536.394226,442.616364 536.938110,443.480530 537.749329,444.600891 
z"/>
<path fill="#000209" opacity="1.000000" stroke="none" 
	d="
M585.918396,543.773621 
	C584.100403,550.830933 579.504700,554.446228 573.899048,553.618042 
	C568.342773,552.797119 564.181519,548.115173 564.152222,542.651367 
	C564.121887,536.998718 568.073425,532.451904 573.722107,531.639954 
	C580.522766,530.662415 585.436462,535.379822 585.918396,543.773621 
z"/>
<path fill="#000209" opacity="1.000000" stroke="none" 
	d="
M503.786102,574.575439 
	C508.443817,572.233459 512.628174,572.382263 515.948975,576.040466 
	C519.031677,579.436340 519.418396,583.561340 517.098816,587.583130 
	C514.927673,591.347412 511.129333,592.870422 507.287811,591.598511 
	C504.637085,590.720947 501.686005,588.383484 500.523285,585.918213 
	C498.651306,581.949036 499.727142,577.779114 503.786102,574.575439 
z"/>
</svg>